<svg width="28" height="26" viewBox="0 0 28 26" fill="none" xmlns="http://www.w3.org/2000/svg">
<path d="M7 0.5C10.5829 0.5 13.5 3.44994 13.5 7.10454H14H14.5C14.5 3.44994 17.4171 0.5 21 0.5C24.5829 0.5 27.5 3.44994 27.5 7.10454C27.5 7.46927 27.3212 8.03912 26.9291 8.80644C26.5461 9.5561 25.9921 10.433 25.3164 11.3912C23.9659 13.3064 22.1587 15.5045 20.3429 17.5901C18.5288 19.6737 16.7137 21.6362 15.3515 23.0784C14.6706 23.7993 14.1033 24.3897 13.7064 24.7998C13.6127 24.8965 13.5285 24.9832 13.4546 25.0592C13.3896 24.9868 13.3163 24.905 13.2353 24.8144C12.869 24.4044 12.3454 23.814 11.7169 23.0931C10.4596 21.6511 8.7842 19.6887 7.10973 17.6052C5.43375 15.5198 3.76569 13.3217 2.51904 11.4066C1.89536 10.4485 1.38372 9.57115 1.02972 8.82065C0.66823 8.05425 0.5 7.47868 0.5 7.10454C0.5 3.44994 3.41711 0.5 7 0.5Z" stroke="black"/>
</svg>