<svg width="89" height="89" viewBox="0 0 89 89" fill="none" xmlns="http://www.w3.org/2000/svg">
<path d="M49.3231 43.3638L39.3996 53.2873C38.3816 54.3053 36.7312 54.3054 35.713 53.2873C34.6949 52.2694 34.6949 50.6187 35.713 49.6006L45.6364 39.6771C43.2241 36.7582 41.5104 33.4526 40.4968 29.9836L2.83488 69.8985C-1.03445 74.0286 -0.930525 80.3984 3.07107 84.4L4.60063 85.9296C8.60239 89.9317 14.9726 90.0346 19.1087 86.1595L59.0164 48.5035C55.5475 47.4899 52.2419 45.7761 49.3231 43.3638V43.3638Z" fill="#FFFCFC"/>
<path d="M49.31 8.44141L80.5598 39.6898C76.7659 42.6965 71.9692 44.4918 66.7536 44.4918C54.4682 44.4918 44.5081 34.5316 44.5081 22.246C44.5081 17.0305 46.3033 12.2354 49.31 8.44141Z" fill="#FFFCFC"/>
<path d="M88.9993 22.2458C88.9993 27.4371 87.2196 32.213 84.2408 35.9982L53.0015 4.75852C56.7867 1.77966 61.5625 0 66.7537 0C79.0392 0 88.9993 9.96021 88.9993 22.2458Z" fill="#FFFCFC"/>
</svg>
