<svg width="577" height="219" viewBox="0 0 577 219" fill="none" xmlns="http://www.w3.org/2000/svg">
<path d="M259.52 154.72C254.24 154.72 250.48 153.34 248.24 150.58C246.04 147.78 244.94 143.76 244.94 138.52V121C244.94 115.64 246.04 111.6 248.24 108.88C250.44 106.12 254.2 104.74 259.52 104.74C264.6 104.74 268.2 105.96 270.32 108.4C272.44 110.84 273.5 114.3 273.5 118.78V122.98H263V118.12C263 116.24 262.8 114.8 262.4 113.8C262 112.8 261.04 112.3 259.52 112.3C258 112.3 257 112.84 256.52 113.92C256.04 114.96 255.8 116.42 255.8 118.3V141.16C255.8 143.08 256.04 144.56 256.52 145.6C257.04 146.6 258.04 147.1 259.52 147.1C261 147.1 261.94 146.6 262.34 145.6C262.78 144.56 263 143.08 263 141.16V136.06H273.5V140.26C273.5 144.82 272.44 148.38 270.32 150.94C268.2 153.46 264.6 154.72 259.52 154.72ZM293.329 154.72C288.089 154.72 284.349 153.38 282.109 150.7C279.869 147.98 278.749 143.98 278.749 138.7V120.64C278.749 115.36 279.869 111.4 282.109 108.76C284.349 106.08 288.089 104.74 293.329 104.74C298.609 104.74 302.369 106.08 304.609 108.76C306.889 111.44 308.029 115.4 308.029 120.64V138.7C308.029 143.98 306.889 147.98 304.609 150.7C302.369 153.38 298.609 154.72 293.329 154.72ZM293.329 147.1C294.849 147.1 295.849 146.6 296.329 145.6C296.809 144.56 297.049 143.16 297.049 141.4V118C297.049 116.2 296.809 114.8 296.329 113.8C295.849 112.8 294.849 112.3 293.329 112.3C291.889 112.3 290.929 112.82 290.449 113.86C289.969 114.86 289.729 116.24 289.729 118V141.4C289.729 143.16 289.949 144.56 290.389 145.6C290.829 146.6 291.809 147.1 293.329 147.1ZM315.225 105.4H326.745L332.085 133.66L337.845 105.4H348.945L349.785 154H342.165L341.265 121.66L335.625 154H328.845L322.845 121.42L322.125 154H314.385L315.225 105.4ZM357.471 105.4H368.991L374.331 133.66L380.091 105.4H391.191L392.031 154H384.411L383.511 121.66L377.871 154H371.091L365.091 121.42L364.371 154H356.631L357.471 105.4ZM399.117 105.4H409.857V154H399.117V105.4ZM421.484 113.38H414.164V105.4H439.544V113.38H432.284V154H421.484V113.38ZM448.203 113.38H440.883V105.4H466.263V113.38H459.003V154H448.203V113.38ZM470.601 105.4H481.341V154H470.601V105.4ZM488.648 105.4H499.388V154H488.648V105.4Z" fill="white"/>
<path d="M120.815 106.218L96.5077 130.525C94.014 133.019 89.9715 133.019 87.4774 130.525C84.9836 128.032 84.9836 123.989 87.4774 121.495L111.784 97.1876C105.876 90.0379 101.678 81.941 99.1952 73.444L6.94393 171.214C-2.53385 181.33 -2.27928 196.933 7.52245 206.735L11.269 210.481C21.0712 220.284 36.6748 220.536 46.806 211.044L144.558 118.807C136.061 116.325 127.964 112.127 120.815 106.218V106.218Z" fill="#FFFCFC"/>
<path d="M120.783 20.677L197.328 97.2187C188.035 104.583 176.285 108.981 163.51 108.981C133.418 108.981 109.021 84.5838 109.021 54.4907C109.021 41.7157 113.418 29.9701 120.783 20.677Z" fill="#FFFCFC"/>
<path d="M218 54.4902C218 67.2059 213.641 78.9043 206.344 88.1761L129.825 11.6558C139.097 4.35921 150.795 0 163.51 0C193.603 0 218 24.3971 218 54.4902Z" fill="#FFFCFC"/>
</svg>